<mxfile host="app.diagrams.net" modified="2020-12-14T09:27:31.829Z" agent="5.0 (Macintosh; Intel Mac OS X 10_15_7) AppleWebKit/537.36 (KHTML, like Gecko) Chrome/86.0.4240.193 Safari/537.36" etag="BZGw0l87Qtgmfj6c44Qw" version="13.11.0" type="github">
  <diagram name="Page-1" id="e7e014a7-5840-1c2e-5031-d8a46d1fe8dd">
    <mxGraphModel dx="946" dy="557" grid="1" gridSize="10" guides="1" tooltips="1" connect="1" arrows="1" fold="1" page="1" pageScale="1" pageWidth="4681" pageHeight="3300" background="#ffffff" math="0" shadow="0">
      <root>
        <mxCell id="0" />
        <mxCell id="1" parent="0" />
        <mxCell id="ZmV35ghbv6C-V_Qf5eGu-45" style="edgeStyle=orthogonalEdgeStyle;rounded=0;orthogonalLoop=1;jettySize=auto;html=1;entryX=0;entryY=0.5;entryDx=0;entryDy=0;endArrow=ERzeroToMany;endFill=1;startArrow=ERmany;startFill=0;" parent="1" source="ZmV35ghbv6C-V_Qf5eGu-41" target="ZmV35ghbv6C-V_Qf5eGu-43" edge="1">
          <mxGeometry relative="1" as="geometry" />
        </mxCell>
        <mxCell id="ZmV35ghbv6C-V_Qf5eGu-46" style="edgeStyle=orthogonalEdgeStyle;rounded=0;orthogonalLoop=1;jettySize=auto;html=1;entryX=0.5;entryY=0;entryDx=0;entryDy=0;endArrow=oval;endFill=0;startArrow=ERmany;startFill=0;" parent="1" source="ZmV35ghbv6C-V_Qf5eGu-41" target="ZmV35ghbv6C-V_Qf5eGu-42" edge="1">
          <mxGeometry relative="1" as="geometry" />
        </mxCell>
        <mxCell id="ZmV35ghbv6C-V_Qf5eGu-41" value="&lt;div style=&quot;box-sizing: border-box ; width: 100% ; background: #e4e4e4 ; padding: 2px&quot;&gt;Gita&amp;nbsp;&lt;/div&gt;&lt;table style=&quot;width: 100% ; font-size: 1em&quot; cellpadding=&quot;2&quot; cellspacing=&quot;0&quot;&gt;&lt;tbody&gt;&lt;tr&gt;&lt;td&gt;PK&lt;/td&gt;&lt;td&gt;Id_gita&lt;br&gt;&lt;/td&gt;&lt;/tr&gt;&lt;tr&gt;&lt;td&gt;FK&lt;/td&gt;&lt;td&gt;data_partenza&lt;br&gt;responsabile&lt;br&gt;Id_itinerario&lt;br&gt;Id_partecipante&lt;br&gt;&lt;br&gt;&lt;br&gt;&lt;/td&gt;&lt;/tr&gt;&lt;tr&gt;&lt;td&gt;&amp;nbsp;&lt;/td&gt;&lt;td&gt;&lt;br&gt;&lt;/td&gt;&lt;/tr&gt;&lt;/tbody&gt;&lt;/table&gt;" style="verticalAlign=top;align=left;overflow=fill;html=1;fillColor=#F694C1;strokeColor=#AF45ED;fontColor=#095C86;" parent="1" vertex="1">
          <mxGeometry x="320" y="310" width="180" height="125" as="geometry" />
        </mxCell>
        <mxCell id="ZmV35ghbv6C-V_Qf5eGu-47" style="edgeStyle=orthogonalEdgeStyle;rounded=0;orthogonalLoop=1;jettySize=auto;html=1;entryX=0;entryY=0.5;entryDx=0;entryDy=0;endArrow=ERmany;endFill=0;startArrow=ERmany;startFill=0;" parent="1" source="ZmV35ghbv6C-V_Qf5eGu-42" target="ZmV35ghbv6C-V_Qf5eGu-44" edge="1">
          <mxGeometry relative="1" as="geometry" />
        </mxCell>
        <mxCell id="ZmV35ghbv6C-V_Qf5eGu-42" value="&lt;div style=&quot;box-sizing: border-box ; width: 100% ; background: #e4e4e4 ; padding: 2px&quot;&gt;Itinerario&lt;/div&gt;&lt;table style=&quot;width: 100% ; font-size: 1em&quot; cellpadding=&quot;2&quot; cellspacing=&quot;0&quot;&gt;&lt;tbody&gt;&lt;tr&gt;&lt;td&gt;PK&lt;/td&gt;&lt;td&gt;Id_itinerario&lt;br&gt;&lt;/td&gt;&lt;/tr&gt;&lt;tr&gt;&lt;td&gt;&lt;br&gt;&lt;/td&gt;&lt;td&gt;durata&lt;br&gt;prezzo&lt;br&gt;&lt;br&gt;&lt;br&gt;&lt;/td&gt;&lt;/tr&gt;&lt;tr&gt;&lt;td&gt;&amp;nbsp;&lt;/td&gt;&lt;td&gt;&lt;br&gt;&lt;/td&gt;&lt;/tr&gt;&lt;/tbody&gt;&lt;/table&gt;" style="verticalAlign=top;align=left;overflow=fill;html=1;fillColor=#F694C1;strokeColor=#AF45ED;fontColor=#095C86;" parent="1" vertex="1">
          <mxGeometry x="380" y="590" width="180" height="125" as="geometry" />
        </mxCell>
        <mxCell id="ZmV35ghbv6C-V_Qf5eGu-43" value="&lt;div style=&quot;box-sizing: border-box ; width: 100% ; background: #e4e4e4 ; padding: 2px&quot;&gt;Partecipante&lt;/div&gt;&lt;table style=&quot;width: 100% ; font-size: 1em&quot; cellpadding=&quot;2&quot; cellspacing=&quot;0&quot;&gt;&lt;tbody&gt;&lt;tr&gt;&lt;td&gt;PK&lt;/td&gt;&lt;td&gt;Id_partecipante&lt;br&gt;&lt;/td&gt;&lt;/tr&gt;&lt;tr&gt;&lt;td&gt;FK&lt;/td&gt;&lt;td&gt;nome&lt;br&gt;cognome&lt;br&gt;età&lt;br&gt;Id_gita&lt;br&gt;&lt;br&gt;&lt;br&gt;&lt;br&gt;&lt;/td&gt;&lt;/tr&gt;&lt;tr&gt;&lt;td&gt;&amp;nbsp;&lt;/td&gt;&lt;td&gt;&lt;br&gt;&lt;/td&gt;&lt;/tr&gt;&lt;/tbody&gt;&lt;/table&gt;" style="verticalAlign=top;align=left;overflow=fill;html=1;fillColor=#F694C1;strokeColor=#AF45ED;fontColor=#095C86;" parent="1" vertex="1">
          <mxGeometry x="870" y="322.5" width="180" height="140" as="geometry" />
        </mxCell>
        <mxCell id="ZmV35ghbv6C-V_Qf5eGu-44" value="&lt;div style=&quot;box-sizing: border-box ; width: 100% ; background: #e4e4e4 ; padding: 2px&quot;&gt;Tappa&lt;/div&gt;&lt;table style=&quot;width: 100% ; font-size: 1em&quot; cellpadding=&quot;2&quot; cellspacing=&quot;0&quot;&gt;&lt;tbody&gt;&lt;tr&gt;&lt;td&gt;PK&lt;/td&gt;&lt;td&gt;Id_tappa&lt;br&gt;&lt;/td&gt;&lt;/tr&gt;&lt;tr&gt;&lt;td&gt;&lt;br&gt;FK&lt;/td&gt;&lt;td&gt;nome&lt;br&gt;durata_soggiorno&lt;br&gt;Id_itinerario&lt;br&gt;&lt;br&gt;&lt;/td&gt;&lt;/tr&gt;&lt;tr&gt;&lt;td&gt;&amp;nbsp;&lt;/td&gt;&lt;td&gt;&lt;br&gt;&lt;/td&gt;&lt;/tr&gt;&lt;/tbody&gt;&lt;/table&gt;" style="verticalAlign=top;align=left;overflow=fill;html=1;fillColor=#F694C1;strokeColor=#AF45ED;fontColor=#095C86;" parent="1" vertex="1">
          <mxGeometry x="820" y="580" width="180" height="125" as="geometry" />
        </mxCell>
        <mxCell id="ZmV35ghbv6C-V_Qf5eGu-49" value="può essere presente" style="text;html=1;strokeColor=#9673a6;fillColor=#e1d5e7;align=center;verticalAlign=middle;whiteSpace=wrap;rounded=0;" parent="1" vertex="1">
          <mxGeometry x="490" y="540" width="50" height="40" as="geometry" />
        </mxCell>
        <mxCell id="ZmV35ghbv6C-V_Qf5eGu-50" value="ha" style="text;html=1;strokeColor=#9673a6;fillColor=#e1d5e7;align=center;verticalAlign=middle;whiteSpace=wrap;rounded=0;" parent="1" vertex="1">
          <mxGeometry x="570" y="670" width="40" height="20" as="geometry" />
        </mxCell>
        <mxCell id="ZmV35ghbv6C-V_Qf5eGu-52" style="edgeStyle=orthogonalEdgeStyle;rounded=0;orthogonalLoop=1;jettySize=auto;html=1;entryX=0.5;entryY=0;entryDx=0;entryDy=0;endArrow=oval;endFill=0;startArrow=ERmany;startFill=0;" parent="1" source="ZmV35ghbv6C-V_Qf5eGu-53" target="ZmV35ghbv6C-V_Qf5eGu-55" edge="1">
          <mxGeometry relative="1" as="geometry" />
        </mxCell>
        <mxCell id="ZmV35ghbv6C-V_Qf5eGu-53" value="&lt;div style=&quot;box-sizing: border-box ; width: 100% ; background: #e4e4e4 ; padding: 2px&quot;&gt;Gite&lt;/div&gt;&lt;table style=&quot;width: 100% ; font-size: 1em&quot; cellpadding=&quot;2&quot; cellspacing=&quot;0&quot;&gt;&lt;tbody&gt;&lt;tr&gt;&lt;td&gt;PK&lt;/td&gt;&lt;td&gt;Id_gita&lt;br&gt;&lt;/td&gt;&lt;/tr&gt;&lt;tr&gt;&lt;td&gt;FK&lt;/td&gt;&lt;td&gt;data_partenza&lt;br&gt;responsabile&lt;br&gt;Id_itinerario&lt;br&gt;&lt;br&gt;&lt;br&gt;&lt;/td&gt;&lt;/tr&gt;&lt;tr&gt;&lt;td&gt;&amp;nbsp;&lt;/td&gt;&lt;td&gt;&lt;br&gt;&lt;/td&gt;&lt;/tr&gt;&lt;/tbody&gt;&lt;/table&gt;" style="verticalAlign=top;align=left;overflow=fill;html=1;fillColor=#F694C1;strokeColor=#AF45ED;fontColor=#095C86;" parent="1" vertex="1">
          <mxGeometry x="1640" y="320" width="180" height="125" as="geometry" />
        </mxCell>
        <mxCell id="07mceTtTBOmkEJdogfJN-2" style="edgeStyle=orthogonalEdgeStyle;rounded=0;orthogonalLoop=1;jettySize=auto;html=1;entryX=0;entryY=0.6;entryDx=0;entryDy=0;entryPerimeter=0;startArrow=none;startFill=0;endArrow=ERmany;endFill=0;" parent="1" source="ZmV35ghbv6C-V_Qf5eGu-55" target="07mceTtTBOmkEJdogfJN-1" edge="1">
          <mxGeometry relative="1" as="geometry" />
        </mxCell>
        <mxCell id="ZmV35ghbv6C-V_Qf5eGu-55" value="&lt;div style=&quot;box-sizing: border-box ; width: 100% ; background: #e4e4e4 ; padding: 2px&quot;&gt;Itinerari&lt;/div&gt;&lt;table style=&quot;width: 100% ; font-size: 1em&quot; cellpadding=&quot;2&quot; cellspacing=&quot;0&quot;&gt;&lt;tbody&gt;&lt;tr&gt;&lt;td&gt;PK&lt;/td&gt;&lt;td&gt;Id_itinerario&lt;br&gt;&lt;/td&gt;&lt;/tr&gt;&lt;tr&gt;&lt;td&gt;&lt;br&gt;&lt;/td&gt;&lt;td&gt;durata&lt;br&gt;prezzo&lt;br&gt;&lt;br&gt;&lt;br&gt;&lt;/td&gt;&lt;/tr&gt;&lt;tr&gt;&lt;td&gt;&amp;nbsp;&lt;/td&gt;&lt;td&gt;&lt;br&gt;&lt;/td&gt;&lt;/tr&gt;&lt;/tbody&gt;&lt;/table&gt;" style="verticalAlign=top;align=left;overflow=fill;html=1;fillColor=#F694C1;strokeColor=#AF45ED;fontColor=#095C86;" parent="1" vertex="1">
          <mxGeometry x="1700" y="600" width="180" height="125" as="geometry" />
        </mxCell>
        <mxCell id="ZmV35ghbv6C-V_Qf5eGu-56" value="&lt;div style=&quot;box-sizing: border-box ; width: 100% ; background: #e4e4e4 ; padding: 2px&quot;&gt;Partecipanti&lt;/div&gt;&lt;table style=&quot;width: 100% ; font-size: 1em&quot; cellpadding=&quot;2&quot; cellspacing=&quot;0&quot;&gt;&lt;tbody&gt;&lt;tr&gt;&lt;td&gt;PK&lt;/td&gt;&lt;td&gt;Id_partecipante&lt;br&gt;&lt;/td&gt;&lt;/tr&gt;&lt;tr&gt;&lt;td&gt;&lt;br&gt;&lt;/td&gt;&lt;td&gt;nome&lt;br&gt;cognome&lt;br&gt;età&lt;br&gt;&lt;br&gt;&lt;br&gt;&lt;br&gt;&lt;br&gt;&lt;/td&gt;&lt;/tr&gt;&lt;tr&gt;&lt;td&gt;&amp;nbsp;&lt;/td&gt;&lt;td&gt;&lt;br&gt;&lt;/td&gt;&lt;/tr&gt;&lt;/tbody&gt;&lt;/table&gt;" style="verticalAlign=top;align=left;overflow=fill;html=1;fillColor=#F694C1;strokeColor=#AF45ED;fontColor=#095C86;" parent="1" vertex="1">
          <mxGeometry x="2370" y="340" width="180" height="140" as="geometry" />
        </mxCell>
        <mxCell id="07mceTtTBOmkEJdogfJN-3" style="edgeStyle=orthogonalEdgeStyle;rounded=0;orthogonalLoop=1;jettySize=auto;html=1;entryX=1;entryY=0.5;entryDx=0;entryDy=0;startArrow=none;startFill=0;endArrow=ERmany;endFill=0;" parent="1" source="ZmV35ghbv6C-V_Qf5eGu-57" target="07mceTtTBOmkEJdogfJN-1" edge="1">
          <mxGeometry relative="1" as="geometry" />
        </mxCell>
        <mxCell id="ZmV35ghbv6C-V_Qf5eGu-57" value="&lt;div style=&quot;box-sizing: border-box ; width: 100% ; background: #e4e4e4 ; padding: 2px&quot;&gt;Tappe&lt;/div&gt;&lt;table style=&quot;width: 100% ; font-size: 1em&quot; cellpadding=&quot;2&quot; cellspacing=&quot;0&quot;&gt;&lt;tbody&gt;&lt;tr&gt;&lt;td&gt;PK&lt;/td&gt;&lt;td&gt;Id_tappa&lt;br&gt;&lt;/td&gt;&lt;/tr&gt;&lt;tr&gt;&lt;td&gt;&lt;br&gt;FK&lt;/td&gt;&lt;td&gt;nome&lt;br&gt;durata_soggiorno&lt;br&gt;Id_itinerario&lt;br&gt;&lt;br&gt;&lt;/td&gt;&lt;/tr&gt;&lt;tr&gt;&lt;td&gt;&amp;nbsp;&lt;/td&gt;&lt;td&gt;&lt;br&gt;&lt;/td&gt;&lt;/tr&gt;&lt;/tbody&gt;&lt;/table&gt;" style="verticalAlign=top;align=left;overflow=fill;html=1;fillColor=#F694C1;strokeColor=#AF45ED;fontColor=#095C86;" parent="1" vertex="1">
          <mxGeometry x="2370" y="575" width="180" height="125" as="geometry" />
        </mxCell>
        <mxCell id="ZmV35ghbv6C-V_Qf5eGu-60" value="ha" style="text;html=1;strokeColor=#9673a6;fillColor=#e1d5e7;align=center;verticalAlign=middle;whiteSpace=wrap;rounded=0;" parent="1" vertex="1">
          <mxGeometry x="1890" y="680" width="40" height="20" as="geometry" />
        </mxCell>
        <mxCell id="ZmV35ghbv6C-V_Qf5eGu-63" style="edgeStyle=orthogonalEdgeStyle;rounded=0;orthogonalLoop=1;jettySize=auto;html=1;entryX=1.013;entryY=0.554;entryDx=0;entryDy=0;entryPerimeter=0;startArrow=ERmany;startFill=0;endArrow=none;endFill=0;" parent="1" source="ZmV35ghbv6C-V_Qf5eGu-61" target="ZmV35ghbv6C-V_Qf5eGu-53" edge="1">
          <mxGeometry relative="1" as="geometry" />
        </mxCell>
        <mxCell id="ZmV35ghbv6C-V_Qf5eGu-64" style="edgeStyle=orthogonalEdgeStyle;rounded=0;orthogonalLoop=1;jettySize=auto;html=1;entryX=0;entryY=0.5;entryDx=0;entryDy=0;startArrow=ERzeroToMany;startFill=1;endArrow=none;endFill=0;" parent="1" source="ZmV35ghbv6C-V_Qf5eGu-61" target="ZmV35ghbv6C-V_Qf5eGu-56" edge="1">
          <mxGeometry relative="1" as="geometry" />
        </mxCell>
        <mxCell id="ZmV35ghbv6C-V_Qf5eGu-61" value="&lt;div style=&quot;box-sizing: border-box ; width: 100% ; background: #e4e4e4 ; padding: 2px&quot;&gt;GitePartecipanti&lt;/div&gt;&lt;table style=&quot;width: 100% ; font-size: 1em&quot; cellpadding=&quot;2&quot; cellspacing=&quot;0&quot;&gt;&lt;tbody&gt;&lt;tr&gt;&lt;td&gt;PK&lt;/td&gt;&lt;td&gt;Id_gita_partecipante&lt;br&gt;&lt;/td&gt;&lt;/tr&gt;&lt;tr&gt;&lt;td&gt;FK&lt;/td&gt;&lt;td&gt;&lt;br&gt;&lt;br&gt;Id_gita&lt;br&gt;Id_partecipante&lt;br&gt;&lt;br&gt;&lt;br&gt;&lt;/td&gt;&lt;/tr&gt;&lt;tr&gt;&lt;td&gt;&amp;nbsp;&lt;/td&gt;&lt;td&gt;&lt;br&gt;&lt;/td&gt;&lt;/tr&gt;&lt;/tbody&gt;&lt;/table&gt;" style="verticalAlign=top;align=left;overflow=fill;html=1;fillColor=#f8cecc;strokeColor=#b85450;" parent="1" vertex="1">
          <mxGeometry x="1970" y="330" width="180" height="125" as="geometry" />
        </mxCell>
        <mxCell id="ZmV35ghbv6C-V_Qf5eGu-67" value="può essere presente" style="text;html=1;strokeColor=#9673a6;fillColor=#e1d5e7;align=center;verticalAlign=middle;whiteSpace=wrap;rounded=0;" parent="1" vertex="1">
          <mxGeometry x="1810" y="550" width="50" height="40" as="geometry" />
        </mxCell>
        <mxCell id="ZmV35ghbv6C-V_Qf5eGu-68" value="hanno" style="text;html=1;strokeColor=#9673a6;fillColor=#e1d5e7;align=center;verticalAlign=middle;whiteSpace=wrap;rounded=0;" parent="1" vertex="1">
          <mxGeometry x="1830" y="360" width="40" height="20" as="geometry" />
        </mxCell>
        <mxCell id="ZmV35ghbv6C-V_Qf5eGu-70" value="possono appartenere" style="text;html=1;strokeColor=#9673a6;fillColor=#e1d5e7;align=center;verticalAlign=middle;whiteSpace=wrap;rounded=0;" parent="1" vertex="1">
          <mxGeometry x="2290" y="350" width="60" height="42.5" as="geometry" />
        </mxCell>
        <mxCell id="ZmV35ghbv6C-V_Qf5eGu-71" value="SCHEMA TABELLE" style="text;strokeColor=none;fillColor=none;html=1;fontSize=24;fontStyle=1;verticalAlign=middle;align=center;rounded=0;sketch=0;" parent="1" vertex="1">
          <mxGeometry x="890" y="1160" width="100" height="40" as="geometry" />
        </mxCell>
        <mxCell id="ZmV35ghbv6C-V_Qf5eGu-72" value="E/R" style="text;strokeColor=none;fillColor=none;html=1;fontSize=24;fontStyle=1;verticalAlign=middle;align=center;rounded=0;sketch=0;" parent="1" vertex="1">
          <mxGeometry x="640" y="180" width="100" height="40" as="geometry" />
        </mxCell>
        <mxCell id="ZmV35ghbv6C-V_Qf5eGu-73" value="LOGICO" style="text;strokeColor=none;fillColor=none;html=1;fontSize=24;fontStyle=1;verticalAlign=middle;align=center;rounded=0;sketch=0;" parent="1" vertex="1">
          <mxGeometry x="2040" y="170" width="100" height="40" as="geometry" />
        </mxCell>
        <mxCell id="ZmV35ghbv6C-V_Qf5eGu-74" value="&lt;ul style=&quot;font-size: 32px&quot;&gt;&lt;li style=&quot;font-size: 32px&quot;&gt;Gite(&lt;u&gt;&lt;b&gt;d_gita&lt;/b&gt;,&amp;nbsp;&lt;/u&gt;data_partenza, responsabile,&amp;nbsp;&lt;u&gt;Id_itinerario&lt;/u&gt;)&lt;/li&gt;&lt;li style=&quot;font-size: 32px&quot;&gt;Itinerari(&lt;b&gt;Id_itinerario,&amp;nbsp;&lt;/b&gt;durata, prezzo&lt;u&gt;)&lt;/u&gt;&lt;/li&gt;&lt;li style=&quot;font-size: 32px&quot;&gt;GitePartecipanti(&lt;b&gt;Id_gita_partecipante,&lt;/b&gt; &lt;u&gt;Id_gita,&amp;nbsp; Id_partecipante&lt;/u&gt;)&lt;/li&gt;&lt;li style=&quot;font-size: 32px&quot;&gt;Partecipanti(&lt;b&gt;Id_partecipante&lt;/b&gt;&lt;u&gt;,&lt;/u&gt;&amp;nbsp;nome, cognome, età&lt;u&gt;)&lt;/u&gt;&lt;/li&gt;&lt;li style=&quot;font-size: 32px&quot;&gt;Tappe(&lt;b&gt;Id_tappa, &lt;/b&gt;nome, durata_soggiorno, &lt;u&gt;Id_itinerario&lt;/u&gt;)&lt;/li&gt;&lt;li&gt;ItinerariTappe(&lt;b&gt;Id_itinerario_tappa,&lt;/b&gt;&amp;nbsp;&lt;u&gt;Id_itinerario,&amp;nbsp; Id_tappa&lt;/u&gt;)&lt;/li&gt;&lt;/ul&gt;" style="text;strokeColor=none;fillColor=none;html=1;whiteSpace=wrap;verticalAlign=middle;overflow=hidden;rounded=0;sketch=0;fontColor=#1A1A1A;fontSize=32;" parent="1" vertex="1">
          <mxGeometry x="510" y="1240" width="1320" height="280" as="geometry" />
        </mxCell>
        <mxCell id="ZmV35ghbv6C-V_Qf5eGu-75" value="MYSQL" style="text;strokeColor=none;fillColor=none;html=1;fontSize=24;fontStyle=1;verticalAlign=middle;align=center;rounded=0;sketch=0;" parent="1" vertex="1">
          <mxGeometry x="2125" y="1120" width="470" height="40" as="geometry" />
        </mxCell>
        <mxCell id="ZmV35ghbv6C-V_Qf5eGu-76" value="create table Itinerari&lt;font style=&quot;font-size: 21px&quot;&gt;(&lt;br style=&quot;font-size: 21px&quot;&gt;Id_itinerario int not null,&lt;br style=&quot;font-size: 21px&quot;&gt;durata int,&lt;br style=&quot;font-size: 21px&quot;&gt;prezzo int,&lt;br style=&quot;font-size: 21px&quot;&gt;primary key(Id_itinerario))&lt;br style=&quot;font-size: 21px&quot;&gt;Engine=InnoDB;&lt;br style=&quot;font-size: 21px&quot;&gt;&lt;br style=&quot;font-size: 21px&quot;&gt;create table Partecipanti(&lt;br style=&quot;font-size: 21px&quot;&gt;Id_partecipante int not null,&lt;br style=&quot;font-size: 21px&quot;&gt;nome varchar(40),&lt;br style=&quot;font-size: 21px&quot;&gt;cognome varchar(40),&lt;br style=&quot;font-size: 21px&quot;&gt;età int,&lt;br style=&quot;font-size: 21px&quot;&gt;primary key(Id_partecipante))&lt;br style=&quot;font-size: 21px&quot;&gt;Engine=InnoDB;&lt;br style=&quot;font-size: 21px&quot;&gt;&lt;br style=&quot;font-size: 21px&quot;&gt;create table Gite(&lt;br style=&quot;font-size: 21px&quot;&gt;Id_gita int not null,&lt;br style=&quot;font-size: 21px&quot;&gt;data_partenza date,&lt;br style=&quot;font-size: 21px&quot;&gt;responsabile varchar(40),&lt;br style=&quot;font-size: 21px&quot;&gt;Id_itinerario int not null,&lt;br style=&quot;font-size: 21px&quot;&gt;primary key(Id_gita),&lt;br style=&quot;font-size: 21px&quot;&gt;foreign key(Id_itinerario) references Itinerari(Id_itinerario) on delete cascade on update cascade)&lt;br style=&quot;font-size: 21px&quot;&gt;Engine=InnoDB;&lt;br style=&quot;font-size: 21px&quot;&gt;&lt;br style=&quot;font-size: 21px&quot;&gt;&lt;/font&gt;&lt;span style=&quot;font-size: 21px&quot;&gt;create table Tappe(&lt;/span&gt;&lt;br style=&quot;font-size: 21px&quot;&gt;&lt;span style=&quot;font-size: 21px&quot;&gt;Id_tappa int not null,&lt;/span&gt;&lt;br style=&quot;font-size: 21px&quot;&gt;&lt;span style=&quot;font-size: 21px&quot;&gt;nome varchar(40),&lt;/span&gt;&lt;br style=&quot;font-size: 21px&quot;&gt;&lt;span style=&quot;font-size: 21px&quot;&gt;durata_soggiorno int,&lt;/span&gt;&lt;br style=&quot;font-size: 21px&quot;&gt;&lt;span style=&quot;font-size: 21px&quot;&gt;Id_itinerario int not null,&lt;/span&gt;&lt;br style=&quot;font-size: 21px&quot;&gt;&lt;span style=&quot;font-size: 21px&quot;&gt;primary key(Id_tappa),&lt;/span&gt;&lt;br style=&quot;font-size: 21px&quot;&gt;&lt;span style=&quot;font-size: 21px&quot;&gt;foreign key(Id_itinerario) references Itinerari(Id_itinerario) on delete cascade on update cascade)&lt;/span&gt;&lt;br style=&quot;font-size: 21px&quot;&gt;&lt;span style=&quot;font-size: 21px&quot;&gt;Engine=InnoDB;&lt;br style=&quot;font-size: 21px&quot;&gt;&lt;/span&gt;&lt;br style=&quot;font-size: 21px&quot;&gt;&lt;span style=&quot;font-size: 21px&quot;&gt;create table GitePartecipanti(&lt;/span&gt;&lt;br style=&quot;font-size: 21px&quot;&gt;&lt;span style=&quot;font-size: 21px&quot;&gt;Id_gita_partecipante int not null,&lt;/span&gt;&lt;br style=&quot;font-size: 21px&quot;&gt;&lt;font style=&quot;font-size: 21px&quot;&gt;Id_gita int not null,&lt;/font&gt;&lt;br style=&quot;font-size: 21px&quot;&gt;&lt;span style=&quot;font-size: 21px&quot;&gt;Id_partecipante int not null,&lt;/span&gt;&lt;br style=&quot;font-size: 21px&quot;&gt;&lt;span style=&quot;font-size: 21px&quot;&gt;primary key(Id_gita_partecipante),&lt;/span&gt;&lt;br style=&quot;font-size: 21px&quot;&gt;&lt;span style=&quot;font-size: 21px&quot;&gt;foreign key(Id_gita) references Gite(Id_gita) on delete cascade on update cascade,&lt;br style=&quot;font-size: 21px&quot;&gt;&lt;/span&gt;&lt;span style=&quot;font-size: 21px&quot;&gt;foreign key(Id_partecipante) references Partecipanti(Id_partecipante) on delete cascade on update cascade)&lt;/span&gt;&lt;br style=&quot;font-size: 21px&quot;&gt;&lt;span style=&quot;font-size: 21px&quot;&gt;Engine=InnoDB;&lt;br&gt;&lt;br&gt;&lt;/span&gt;create table ItinerariTappe(&lt;br&gt;Id_itinerari_tappe int not null,&lt;br&gt;Id_itinerario int not null,&lt;br&gt;Id_tappa int not null,&lt;br&gt;primary key(Id_itinerari_tappe),&lt;br&gt;foreign key(Id_itinerario) references Itinerari(Id_itinerario) on delete cascade on update cascade,&lt;br&gt;foreign key(Id_tappa) references Tappe(Id_tappa) on delete cascade on update cascade)&lt;br&gt;Engine=InnoDB;&lt;br style=&quot;font-size: 21px&quot;&gt;&lt;font style=&quot;font-size: 21px&quot;&gt;&lt;br style=&quot;font-size: 21px&quot;&gt;&lt;/font&gt;" style="text;html=1;strokeColor=none;fillColor=none;align=center;verticalAlign=middle;whiteSpace=wrap;rounded=0;fontSize=21;" parent="1" vertex="1">
          <mxGeometry x="1940" y="1770" width="840" height="110" as="geometry" />
        </mxCell>
        <mxCell id="07mceTtTBOmkEJdogfJN-1" value="&lt;div style=&quot;box-sizing: border-box ; width: 100% ; background: #e4e4e4 ; padding: 2px&quot;&gt;ItinerariTappe&lt;/div&gt;&lt;table style=&quot;width: 100% ; font-size: 1em&quot; cellpadding=&quot;2&quot; cellspacing=&quot;0&quot;&gt;&lt;tbody&gt;&lt;tr&gt;&lt;td&gt;PK&lt;/td&gt;&lt;td&gt;Id_itinerario_tappa&lt;br&gt;&lt;/td&gt;&lt;/tr&gt;&lt;tr&gt;&lt;td&gt;FK&lt;/td&gt;&lt;td&gt;&lt;br&gt;&lt;br&gt;Id_itinerario&lt;br&gt;Id_tappa&lt;br&gt;&lt;br&gt;&lt;br&gt;&lt;/td&gt;&lt;/tr&gt;&lt;tr&gt;&lt;td&gt;&amp;nbsp;&lt;/td&gt;&lt;td&gt;&lt;br&gt;&lt;/td&gt;&lt;/tr&gt;&lt;/tbody&gt;&lt;/table&gt;" style="verticalAlign=top;align=left;overflow=fill;html=1;fillColor=#f8cecc;strokeColor=#b85450;" parent="1" vertex="1">
          <mxGeometry x="2040" y="575" width="180" height="125" as="geometry" />
        </mxCell>
        <mxCell id="07mceTtTBOmkEJdogfJN-4" value="può essere presente" style="text;html=1;strokeColor=#9673a6;fillColor=#e1d5e7;align=center;verticalAlign=middle;whiteSpace=wrap;rounded=0;" parent="1" vertex="1">
          <mxGeometry x="2300" y="650" width="50" height="50" as="geometry" />
        </mxCell>
      </root>
    </mxGraphModel>
  </diagram>
</mxfile>
